<?xml version="1.0" encoding="utf-8"?>
<!-- Generator: Adobe Illustrator 24.1.0, SVG Export Plug-In . SVG Version: 6.00 Build 0)  -->
<svg version="1.1" id="Layer_1" xmlns="http://www.w3.org/2000/svg" xmlns:xlink="http://www.w3.org/1999/xlink" x="0px" y="0px"
	 viewBox="0 0 100 100" style="enable-background:new 0 0 100 100;" xml:space="preserve">
<style type="text/css">
	.st0{fill:none;stroke:#33368D;stroke-width:3;stroke-linejoin:round;stroke-miterlimit:10;}
</style>
<g>
	<path class="st0" d="M68.6,54.5c-3.3,2.8-8.1,4.2-14.2,4.2H42.5v20.4H30.7V22.3h24.4c5.6,0,10.1,1.5,13.4,4.4c3.3,2.9,5,7.5,5,13.6
		C73.6,47,71.9,51.7,68.6,54.5z M59.5,34.1c-1.5-1.3-3.6-1.9-6.3-1.9H42.5v16.7h10.7c2.7,0,4.8-0.7,6.3-2c1.5-1.4,2.3-3.5,2.3-6.5
		C61.8,37.4,61,35.3,59.5,34.1z"/>
</g>
</svg>
