<?xml version="1.0" standalone="no"?>
<!DOCTYPE svg PUBLIC "-//W3C//DTD SVG 20010904//EN"
 "http://www.w3.org/TR/2001/REC-SVG-20010904/DTD/svg10.dtd">
<svg version="1.0" xmlns="http://www.w3.org/2000/svg"
 width="176.000000pt" height="148.000000pt" viewBox="0 0 176.000000 148.000000"
 preserveAspectRatio="xMidYMid meet">

<g transform="translate(0.000000,148.000000) scale(0.100000,-0.100000)"
fill="#000000" stroke="none">
<path d="M450 696 l0 -536 85 0 85 0 0 219 0 220 208 3 c196 3 210 4 257 28
102 50 156 140 163 270 5 111 -19 180 -84 240 -89 82 -101 85 -426 88 l-288 4
0 -536z m630 461 c54 -27 70 -41 97 -86 86 -143 35 -339 -106 -409 -55 -26
-60 -27 -268 -30 l-213 -4 0 -214 0 -214 -55 0 -55 0 0 493 c0 272 2 496 4
498 2 2 123 3 268 1 l263 -2 65 -33z"/>
<path d="M590 915 l0 -195 185 0 c202 0 234 7 288 57 71 68 59 234 -20 291
-47 33 -105 41 -285 42 l-168 0 0 -195z m423 132 c46 -30 62 -65 62 -133 0
-71 -19 -105 -76 -139 -30 -17 -56 -20 -206 -23 l-173 -4 0 160 c0 87 2 161 4
163 2 2 85 2 183 -1 148 -4 184 -8 206 -23z"/>
</g>
</svg>
