<?xml version="1.0" encoding="utf-8"?>
<!-- Generator: Adobe Illustrator 24.1.0, SVG Export Plug-In . SVG Version: 6.00 Build 0)  -->
<svg version="1.1" id="Layer_1" xmlns="http://www.w3.org/2000/svg" xmlns:xlink="http://www.w3.org/1999/xlink" x="0px" y="0px"
	 viewBox="0 0 100 100" style="enable-background:new 0 0 100 100;" xml:space="preserve">
<style type="text/css">
	.st0{fill:none;stroke:#C0282D;stroke-width:3;stroke-linejoin:round;stroke-miterlimit:10;}
</style>
<g>
	<path class="st0" d="M37.5,58.1c0.4,2.6,1.1,4.5,2.2,5.8c2,2.3,5.3,3.5,10.1,3.5c2.9,0,5.2-0.3,7-0.9c3.4-1.2,5.1-3.4,5.1-6.6
		c0-1.9-0.8-3.3-2.5-4.4c-1.7-1-4.3-1.9-7.9-2.7l-6.1-1.3c-6-1.3-10.2-2.8-12.4-4.4c-3.8-2.6-5.7-6.7-5.7-12.3
		c0-5.1,1.9-9.3,5.6-12.7c3.7-3.4,9.2-5,16.5-5c6.1,0,11.2,1.6,15.5,4.8c4.3,3.2,6.5,7.8,6.7,13.8H60c-0.2-3.4-1.7-5.8-4.6-7.3
		c-1.9-0.9-4.3-1.4-7.1-1.4c-3.1,0-5.6,0.6-7.5,1.8c-1.9,1.2-2.8,3-2.8,5.2c0,2,0.9,3.5,2.8,4.5c1.2,0.7,3.7,1.5,7.5,2.3l10,2.3
		c4.4,1,7.6,2.4,9.8,4.1c3.4,2.7,5.1,6.5,5.1,11.6c0,5.2-2,9.5-6,12.9c-4,3.4-9.7,5.1-17,5.1c-7.5,0-13.3-1.7-17.6-5.1
		c-4.3-3.4-6.4-8-6.4-13.9H37.5z"/>
</g>
</svg>
