<?xml version="1.0" standalone="no"?>
<!DOCTYPE svg PUBLIC "-//W3C//DTD SVG 20010904//EN"
 "http://www.w3.org/TR/2001/REC-SVG-20010904/DTD/svg10.dtd">
<svg version="1.0" xmlns="http://www.w3.org/2000/svg"
 width="197.000000pt" height="150.000000pt" viewBox="0 0 197.000000 150.000000"
 preserveAspectRatio="xMidYMid meet">

<g transform="translate(0.000000,150.000000) scale(0.100000,-0.100000)"
fill="#000000" stroke="none">
<path d="M770 1321 c-132 -42 -213 -139 -226 -270 -13 -119 36 -215 135 -265
39 -20 198 -64 331 -91 59 -13 135 -51 158 -80 29 -36 30 -107 2 -152 -51 -84
-253 -118 -375 -63 -72 32 -125 113 -125 191 l0 29 -85 0 -85 0 5 -42 c13 -96
18 -114 40 -158 71 -141 256 -218 458 -192 163 21 273 81 322 177 27 52 30 68
30 149 0 102 -17 146 -77 202 -50 48 -106 72 -246 105 -292 69 -322 85 -322
171 0 62 21 99 73 129 87 48 266 32 328 -31 17 -17 35 -51 45 -89 l17 -61 80
0 80 0 -5 58 c-18 192 -168 303 -407 301 -63 0 -115 -6 -151 -18z m330 -40
c115 -44 185 -126 192 -226 l3 -40 -50 0 -49 0 -8 40 c-10 51 -57 109 -111
137 -58 30 -204 37 -274 14 -120 -40 -171 -183 -95 -267 33 -36 92 -57 289
-103 206 -48 262 -77 306 -161 32 -61 31 -184 -4 -250 -52 -101 -161 -155
-333 -163 -168 -7 -258 19 -341 102 -47 48 -88 140 -83 190 3 29 5 31 47 31
l43 0 18 -58 c10 -31 30 -74 45 -93 102 -133 441 -118 508 21 9 20 17 59 17
88 0 107 -53 146 -270 197 -256 60 -307 84 -350 160 -51 92 -24 247 57 321 34
32 98 66 150 79 64 16 231 5 293 -19z"/>
</g>
</svg>
